<?xml version="1.0" encoding="UTF-8" standalone="no"?>
<svg
   xmlns:dc="http://purl.org/dc/elements/1.1/"
   xmlns:cc="http://creativecommons.org/ns#"
   xmlns:rdf="http://www.w3.org/1999/02/22-rdf-syntax-ns#"
   xmlns:svg="http://www.w3.org/2000/svg"
   xmlns="http://www.w3.org/2000/svg"
   viewBox="53 43 303 96"
   height="96"
   width="303"
   xml:space="preserve"
   id="svg2"
   version="1.1"><metadata
     id="metadata8"><rdf:RDF><cc:Work
         rdf:about=""><dc:format>image/svg+xml</dc:format><dc:type
           rdf:resource="http://purl.org/dc/dcmitype/StillImage" /></cc:Work></rdf:RDF></metadata><defs
     id="defs6" /><g
     transform="matrix(1.3333333,0,0,-1.3333333,0,173.33333)"
     id="g10"><g
       transform="scale(0.1)"
       id="g12"><path
         id="path14"
         style="fill:#ffffff;fill-opacity:1;fill-rule:nonzero;stroke:none"
         d="m 1734.8,936.688 c 0,-4.864 0,-36.387 0,-45.801 h -64.15 c -3.9,1.597 -7.77,3.199 -11.64,4.801 -53.46,22.148 -99.55,34.425 -130.24,41 67.76,0 201.29,0 206.03,0 z m 164.37,-99.266 h -83.01 c -46.71,14.598 -89.14,30.641 -129.48,46.926 53.99,0 207.26,0 212.49,0 0,-4.852 0,-36.926 0,-46.926 z m 163.74,-51.914 c -87.01,10.211 -160.3,26.312 -225.18,45.387 62.61,0 220.09,0 225.18,0 0,-4.676 0,-34.415 0,-45.387 z m 84.52,-7.016 -4.04,0.141 c -0.12,0.012 -0.23,0.074 -0.35,0.074 l -14.88,0.473 c -20.26,1.55 -39.8,3.414 -58.71,5.55 v 52.692 h -3.27 -17.01 c 0,0 -0.04,0.058 -0.08,0.086 -1.48,0.988 -119.55,78.367 -276.77,116.344 -20.13,5.023 -40.74,9.336 -61.63,12.648 -0.43,0.074 -0.84,0 -1.22,-0.125 -22.77,3.539 -46.07,6.063 -69.72,7.266 -1.45,0.074 -2.69,-1.051 -2.77,-2.504 -0.07,-1.449 1.04,-2.688 2.5,-2.762 45.32,-2.301 89.35,-9.488 130.68,-19.41 129.44,-32.129 238.77,-94.18 267.81,-111.543 H 1905.7 v 53.465 h -3.26 -161.11 v 52.34 h -3.25 -248.71 c -2.74,0 -4.68,-1.289 -4.68,-3.641 0,-3.547 3.71,-4.121 4.79,-4.234 0.71,-0.075 71.84,-7.766 166.63,-47.039 120.5,-49.918 255.94,-99.993 468.83,-116.129 0.03,-0.016 0.63,-0.028 1.58,-0.067 0.89,-0.062 1.77,-0.137 2.65,-0.211 0.16,0 18.02,-0.578 18.02,-0.578 1.99,-0.058 3.63,1.488 3.7,3.465 0.06,1.988 -1.49,3.641 -3.46,3.699" /><path
         id="path16"
         style="fill:#ffffff;fill-opacity:1;fill-rule:nonzero;stroke:none"
         d="m 1498.3,350.141 c 13.23,0 24.52,3.422 24.52,18.871 0,10.398 -5.64,18.133 -18.87,18.133 h -35.06 v -37.004 z m -43.54,48.882 h 49.93 c 19.91,0 32.25,-10.843 32.25,-27.773 0,-12.793 -5.65,-23.332 -18.43,-26.902 v -0.293 c 12.33,-2.379 14.86,-11.442 15.9,-21.852 0.89,-10.394 0.29,-21.992 6.24,-29.273 h -15.75 c -4.01,4.32 -1.79,15.758 -3.86,26.152 -1.5,10.41 -4.02,19.164 -17.69,19.164 h -34.46 V 292.93 h -14.13 v 106.093" /><path
         id="path18"
         style="fill:#ffffff;fill-opacity:1;fill-rule:nonzero;stroke:none"
         d="m 1607.75,338.699 c -0.6,12.035 -9.66,21.692 -22.14,21.692 -13.23,0 -21.1,-9.95 -21.98,-21.692 z m 12.18,-21.402 c -3.41,-16.93 -15.59,-26.149 -32.83,-26.149 -24.52,0 -36.1,16.946 -36.86,40.422 0,23.028 15.16,39.969 36.11,39.969 27.19,0 35.51,-25.406 34.77,-43.976 h -57.49 c -0.45,-13.372 7.13,-25.262 23.91,-25.262 10.41,0 17.68,5.051 19.92,14.996 h 12.47" /><path
         id="path20"
         style="fill:#ffffff;fill-opacity:1;fill-rule:nonzero;stroke:none"
         d="m 1643.14,317.152 c 0.45,-11.297 10.25,-14.851 20.66,-14.851 7.87,0 18.57,1.785 18.57,11.437 0,9.805 -12.48,11.442 -25.11,14.258 -12.48,2.832 -25.11,6.984 -25.11,21.707 0,15.449 15.3,21.836 28.68,21.836 16.94,0 30.46,-5.344 31.5,-24.07 h -12.63 c -0.9,9.801 -9.51,12.922 -17.83,12.922 -7.58,0 -16.35,-2.078 -16.35,-9.801 0,-9.063 13.38,-10.555 25.12,-13.371 12.62,-2.832 25.1,-6.985 25.1,-21.852 0,-18.265 -17.08,-24.219 -32.68,-24.219 -17.24,0 -31.81,6.981 -32.55,26.004 h 12.63" /><path
         id="path22"
         style="fill:#ffffff;fill-opacity:1;fill-rule:nonzero;stroke:none"
         d="m 1763.41,338.699 c -0.6,12.035 -9.66,21.692 -22.14,21.692 -13.23,0 -21.1,-9.95 -21.98,-21.692 z m 12.18,-21.402 c -3.41,-16.93 -15.59,-26.149 -32.83,-26.149 -24.52,0 -36.1,16.946 -36.86,40.422 0,23.028 15.16,39.969 36.11,39.969 27.19,0 35.51,-25.406 34.77,-43.976 h -57.49 c -0.45,-13.372 7.13,-25.262 23.91,-25.262 10.41,0 17.68,5.051 19.92,14.996 h 12.47" /><path
         id="path24"
         style="fill:#ffffff;fill-opacity:1;fill-rule:nonzero;stroke:none"
         d="m 1838.27,332.613 c -4.91,-3.57 -14.42,-3.715 -22.88,-5.211 -8.32,-1.48 -15.45,-4.457 -15.45,-13.808 0,-8.332 7.13,-11.293 14.85,-11.293 16.64,0 23.48,10.394 23.48,17.379 z m 20.5,-39.383 c -2.22,-1.339 -5.05,-2.082 -9.06,-2.082 -6.53,0 -10.7,3.571 -10.7,11.891 -6.98,-8.168 -16.35,-11.891 -27.03,-11.891 -13.98,0 -25.42,6.243 -25.42,21.547 0,17.395 12.93,21.094 26,23.621 13.97,2.688 25.86,1.786 25.86,11.297 0,11.004 -9.06,12.778 -17.09,12.778 -10.7,0 -18.57,-3.27 -19.17,-14.563 h -12.63 c 0.74,19.02 15.45,25.711 32.54,25.711 13.82,0 28.83,-3.121 28.83,-21.098 V 310.91 c 0,-5.937 0,-8.609 4.01,-8.609 1.05,0 2.24,0.144 3.86,0.738 v -9.809" /><path
         id="path26"
         style="fill:#ffffff;fill-opacity:1;fill-rule:nonzero;stroke:none"
         d="m 1870.93,369.754 h 11.89 v -16.191 h 0.3 c 6.09,12.328 14.55,18.425 28.23,17.976 v -13.371 c -20.36,0 -27.79,-11.586 -27.79,-31.055 V 292.93 h -12.63 v 76.824" /><path
         id="path28"
         style="fill:#ffffff;fill-opacity:1;fill-rule:nonzero;stroke:none"
         d="m 1972.86,345.086 c -1.93,9.656 -8.61,15.305 -19.02,15.305 -18.27,0 -23.91,-14.407 -23.91,-30.012 0,-14.113 6.39,-28.078 22.43,-28.078 12.18,0 19.47,7.129 21.1,18.715 h 12.93 c -2.83,-18.715 -14.56,-29.868 -33.88,-29.868 -23.48,0 -35.96,16.348 -35.96,39.231 0,23.027 11.89,41.16 36.26,41.16 17.38,0 31.35,-8.176 33.13,-26.453 h -13.08" /><path
         id="path30"
         style="fill:#ffffff;fill-opacity:1;fill-rule:nonzero;stroke:none"
         d="m 2000.81,399.023 h 12.63 v -40.566 h 0.29 c 4.17,9.219 15.01,13.082 24.23,13.082 20.2,0 26.44,-11.586 26.44,-28.078 V 292.93 h -12.63 v 52.011 c 0,9.364 -5.94,15.45 -15.59,15.45 -15.31,0 -22.74,-10.25 -22.74,-24.075 V 292.93 h -12.63 v 106.093" /><path
         id="path32"
         style="fill:#ffffff;fill-opacity:1;fill-rule:nonzero;stroke:none"
         d="m 2201.35,367.082 c -2.98,15.012 -15.01,22.59 -29.72,22.59 -25.26,0 -35.96,-20.805 -35.96,-42.945 0,-24.219 10.7,-44.426 36.1,-44.426 18.59,0 29.27,13.066 30.62,30.605 h 14.12 c -2.68,-26.453 -19.17,-42.496 -45.93,-42.496 -32.98,0 -49.03,24.36 -49.03,55.27 0,30.765 17.54,55.871 50.22,55.871 22.14,0 40.42,-11.879 43.69,-34.469 h -14.11" /><path
         id="path34"
         style="fill:#ffffff;fill-opacity:1;fill-rule:nonzero;stroke:none"
         d="m 2278.62,332.613 c -4.91,-3.57 -14.42,-3.715 -22.89,-5.211 -8.31,-1.48 -15.44,-4.457 -15.44,-13.808 0,-8.332 7.13,-11.293 14.85,-11.293 16.64,0 23.48,10.394 23.48,17.379 z m 20.5,-39.383 c -2.23,-1.339 -5.06,-2.082 -9.06,-2.082 -6.54,0 -10.7,3.571 -10.7,11.891 -6.99,-8.168 -16.35,-11.891 -27.04,-11.891 -13.98,0 -25.42,6.243 -25.42,21.547 0,17.395 12.94,21.094 26,23.621 13.97,2.688 25.86,1.786 25.86,11.297 0,11.004 -9.06,12.778 -17.09,12.778 -10.7,0 -18.57,-3.27 -19.16,-14.563 h -12.63 c 0.74,19.02 15.46,25.711 32.53,25.711 13.83,0 28.84,-3.121 28.84,-21.098 V 310.91 c 0,-5.937 0,-8.609 4.01,-8.609 1.04,0 2.23,0.144 3.86,0.738 v -9.809" /><path
         id="path36"
         style="fill:#ffffff;fill-opacity:1;fill-rule:nonzero;stroke:none"
         d="m 2311.52,369.754 h 11.89 v -11.297 h 0.29 c 5.65,8.625 14.28,13.082 24.82,13.082 9.36,0 17.99,-3.719 21.11,-13.082 5.19,8.176 14.25,13.082 24.07,13.082 15.3,0 25.55,-6.387 25.55,-22.285 V 292.93 h -12.63 v 50.371 c 0,9.508 -2.53,17.09 -14.85,17.09 -12.2,0 -20.07,-7.727 -20.07,-19.618 V 292.93 h -12.63 v 50.371 c 0,9.961 -3.12,17.09 -14.41,17.09 -15,0 -20.51,-13.809 -20.51,-19.618 V 292.93 h -12.63 v 76.824" /><path
         id="path38"
         style="fill:#ffffff;fill-opacity:1;fill-rule:nonzero;stroke:none"
         d="m 2474.31,360.391 c -16.94,0 -23.47,-14.563 -23.47,-28.969 0,-15.156 6.83,-29.121 24.21,-29.121 17.24,0 23.03,14.707 23.03,29.719 0,14.402 -7.42,28.371 -23.77,28.371 z m -35.66,9.363 h 12.64 v -10.395 h 0.29 c 4.16,8.461 13.96,12.18 24.52,12.18 23.62,0 35.37,-18.73 35.37,-40.422 0,-21.687 -11.6,-39.969 -35.08,-39.969 -7.87,0 -19.17,2.981 -24.81,12.036 h -0.29 V 263.52 h -12.64 v 106.234" /><path
         id="path40"
         style="fill:#ffffff;fill-opacity:1;fill-rule:nonzero;stroke:none"
         d="m 2590.1,292.93 h -11.88 v 12.187 h -0.3 c -5.35,-9.508 -13.97,-13.969 -24.96,-13.969 -20.21,0 -26.46,11.586 -26.46,28.082 v 50.524 h 12.64 v -52.008 c 0,-9.363 5.93,-15.445 15.6,-15.445 15.31,0 22.73,10.25 22.73,24.07 v 43.383 h 12.63 V 292.93" /><path
         id="path42"
         style="fill:#ffffff;fill-opacity:1;fill-rule:nonzero;stroke:none"
         d="m 2617.4,317.152 c 0.45,-11.297 10.25,-14.851 20.66,-14.851 7.87,0 18.56,1.785 18.56,11.437 0,9.805 -12.48,11.442 -25.11,14.258 -12.47,2.832 -25.1,6.984 -25.1,21.707 0,15.449 15.3,21.836 28.67,21.836 16.94,0 30.46,-5.344 31.5,-24.07 h -12.63 c -0.9,9.801 -9.51,12.922 -17.83,12.922 -7.58,0 -16.34,-2.078 -16.34,-9.801 0,-9.063 13.37,-10.555 25.11,-13.371 12.62,-2.832 25.11,-6.985 25.11,-21.852 0,-18.265 -17.09,-24.219 -32.69,-24.219 -17.24,0 -31.8,6.981 -32.55,26.004 h 12.64" /><path
         id="path44"
         style="fill:#ffffff;fill-opacity:1;fill-rule:nonzero;stroke:none"
         d="m 1555.74,711.742 c 0.99,3.321 1.53,6.836 1.53,10.481 0,20.34 -16.48,36.828 -36.82,36.828 -20.34,0 -36.83,-16.488 -36.83,-36.828 0,-3.645 0.54,-7.16 1.54,-10.481 h 70.58" /><path
         id="path46"
         style="fill:#ffffff;fill-opacity:1;fill-rule:nonzero;stroke:none"
         d="m 2432.13,711.742 c 0.99,3.321 1.53,6.836 1.53,10.481 0,20.34 -16.48,36.828 -36.82,36.828 -20.34,0 -36.83,-16.488 -36.83,-36.828 0,-3.645 0.54,-7.16 1.54,-10.481 h 70.58" /><path
         id="path48"
         style="fill:#ffffff;fill-opacity:1;fill-rule:nonzero;stroke:none"
         d="M 1555.7,689.012 V 529.605 c 0,-43.718 -4.37,-76.675 -69.61,-76.675 -9.76,0 -19.51,0.34 -31.95,1.011 v 49.77 c 27.58,0 31.61,1.684 31.61,25.894 v 159.407 h 69.95" /><path
         id="path50"
         style="fill:#ffffff;fill-opacity:1;fill-rule:nonzero;stroke:none"
         d="m 1703.34,590.813 c -22.87,-11.098 -53.13,-5.715 -53.13,-28.583 0,-8.746 8.4,-14.8 22.19,-14.8 24.55,0 32.62,19.172 30.94,43.383 z m 7.06,-78.02 -3.36,18.836 c -19.84,-18.5 -40.02,-23.879 -66.25,-23.879 -33.29,0 -62.89,16.477 -62.89,53.133 0,80.039 125.44,43.719 125.44,76.676 0,12.781 -15.47,14.461 -22.87,14.461 -9.75,0 -22.87,-2.016 -24.55,-17.149 h -67.26 c 0,37.328 26.57,59.188 96.18,59.188 83.41,0 88.45,-30.942 88.45,-72.977 v -82.394 c 0,-10.09 0.34,-15.133 9.42,-22.536 v -3.359 h -72.31" /><path
         id="path52"
         style="fill:#ffffff;fill-opacity:1;fill-rule:nonzero;stroke:none"
         d="m 1806.6,689.012 h 63.9 v -27.574 c 15.8,21.183 32.95,32.621 59.52,32.621 46.41,0 68.27,-27.243 68.27,-75.668 V 512.793 h -69.95 v 93.156 c 0,17.489 -4.71,32.953 -24.55,32.953 -21.52,0 -27.24,-13.789 -27.24,-36.316 v -89.793 h -69.95 v 176.219" /><path
         id="path54"
         style="fill:#ffffff;fill-opacity:1;fill-rule:nonzero;stroke:none"
         d="m 2155.36,620.742 c 0,16.145 -14.47,30.606 -30.94,30.606 -20.85,0 -32.62,-11.77 -32.62,-30.606 z m -63.56,-35.644 c 0,-20.852 16.14,-34.641 34.63,-34.641 11.1,0 21.19,5.043 26.23,15.473 h 66.93 c -12.11,-43.719 -56.5,-58.18 -97.53,-58.18 -56.5,0 -100.21,32.281 -100.21,91.469 0,57.847 43.38,94.84 99.87,94.84 65.25,0 104.6,-45.067 103.59,-108.961 H 2091.8" /><path
         id="path56"
         style="fill:#ffffff;fill-opacity:1;fill-rule:nonzero;stroke:none"
         d="m 2253.23,512.793 v 242.133 h 69.95 V 512.793 h -69.95" /><path
         id="path58"
         style="fill:#ffffff;fill-opacity:1;fill-rule:nonzero;stroke:none"
         d="m 2361.86,512.793 v 176.219 h 69.95 V 512.793 h -69.95" /><path
         id="path60"
         style="fill:#ffffff;fill-opacity:1;fill-rule:nonzero;stroke:none"
         d="m 2583.49,590.813 c -22.87,-11.098 -53.13,-5.715 -53.13,-28.583 0,-8.746 8.4,-14.8 22.19,-14.8 24.55,0 32.62,19.172 30.94,43.383 z m 7.06,-78.02 -3.36,18.836 c -19.84,-18.5 -40.02,-23.879 -66.25,-23.879 -33.29,0 -62.89,16.477 -62.89,53.133 0,80.039 125.44,43.719 125.44,76.676 0,12.781 -15.47,14.461 -22.87,14.461 -9.75,0 -22.87,-2.016 -24.55,-17.149 h -67.26 c 0,37.328 26.57,59.188 96.18,59.188 83.41,0 88.45,-30.942 88.45,-72.977 v -82.394 c 0,-10.09 0.34,-15.133 9.42,-22.536 v -3.359 h -72.31" /><path
         id="path62"
         style="fill:#ffffff;fill-opacity:1;fill-rule:nonzero;stroke:none"
         d="m 400.418,756.715 h 67.98 v -86.184 h 0.688 c 11.676,13.739 26.781,23.692 55.621,23.692 31.934,0 61.117,-19.571 61.117,-60.426 V 511.563 H 517.84 v 93.394 c 0,20.598 -2.402,35.02 -22.317,35.02 -11.671,0 -27.125,-5.836 -27.125,-34.332 v -94.082 h -67.98 v 245.152" /><path
         id="path64"
         style="fill:#ffffff;fill-opacity:1;fill-rule:nonzero;stroke:none"
         d="m 615.574,756.715 h 67.981 v -86.184 h 0.687 c 11.676,13.739 26.781,23.692 55.625,23.692 31.93,0 61.113,-19.571 61.113,-60.426 V 511.563 h -67.984 v 93.394 c 0,20.598 -2.402,35.02 -22.316,35.02 -11.672,0 -27.125,-5.836 -27.125,-34.332 v -94.082 h -67.981 v 245.152" /><path
         id="path66"
         style="fill:#ffffff;fill-opacity:1;fill-rule:nonzero;stroke:none"
         d="m 830.559,689.762 h 65.578 V 666.07 h 0.687 c 13.735,20.606 33.649,28.153 58.367,28.153 19.231,0 39.829,-9.953 48.069,-27.809 2.75,2.063 16.48,27.809 60.77,27.809 45.67,0 61.12,-31.586 61.12,-60.426 V 511.563 h -67.99 v 96.48 c 0,16.824 -1.71,31.934 -22.31,31.934 -17.17,0 -23.01,-13.391 -23.01,-31.934 v -96.48 h -67.977 v 96.48 c 0,16.824 -1.718,31.934 -22.32,31.934 -17.164,0 -23.004,-13.391 -23.004,-31.934 v -96.48 h -67.98 v 178.199" /><path
         id="path68"
         style="fill:#ffffff;fill-opacity:1;fill-rule:nonzero;stroke:none"
         d="m 1154.1,689.762 h 67.98 V 511.563 h -67.98 v 178.199" /><path
         id="path70"
         style="fill:#ffffff;fill-opacity:1;fill-rule:nonzero;stroke:none"
         d="m 1223.85,711.59 c 1.01,3.363 1.56,6.93 1.56,10.625 0,20.613 -16.71,37.328 -37.33,37.328 -20.61,0 -37.32,-16.715 -37.32,-37.328 0,-3.695 0.55,-7.262 1.55,-10.625 h 71.54" /><path
         id="path72"
         style="fill:#ffffff;fill-opacity:1;fill-rule:nonzero;stroke:none"
         d="m 1352.08,294.488 h -5.56 v 485.371 h 5.56 V 294.488" /></g></g></svg>